<svg id="Capa_1" enable-background="new 0 0 512 512" height="512" viewBox="0 0 512 512" width="512" xmlns="http://www.w3.org/2000/svg"><g><path d="m464.16 210.63-46.948-36.596c-1.811-1.411-4.349-1.412-6.16-.001l-46.958 36.596c-3.287 2.565-8.086-4.309-8.086-12.948v-95.517c53.124-10.02 91.73-26.562 116.238-39.858v135.375c0 8.918-4.799 15.514-8.086 12.949z" fill="#36ce94"/><path d="m364.095 201.63 46.958-36.596c1.811-1.411 4.349-1.411 6.16 0l46.948 36.596c3.287 2.565 8.086.221 8.086-3.948v18.035c0 4.168-4.799 6.513-8.086 3.948l-50.028-38.997-50.038 38.997c-3.286 2.565-8.086.221-8.086-3.948v-18.035c0 4.168 4.799 6.513 8.086 3.948z" fill="#36bf84"/><path d="m205.965 243.344 46.958-36.596c1.811-1.411 4.349-1.411 6.16 0l46.948 36.596c3.296 2.565 8.096-2.698 8.096-12.948v-122.159c-18.055 1.864-37.433 2.926-58.124 2.926s-40.068-1.062-58.124-2.926v122.159c0 9.413 4.8 15.513 8.086 12.948z" fill="#f7594e"/><path d="m47.845 210.63 46.948-36.596c1.811-1.411 4.349-1.412 6.159-.001l46.958 36.596c3.287 2.565 8.086-4.309 8.086-12.948v-95.517c-53.124-10.02-91.73-26.562-116.238-39.858v135.375c.002 8.918 4.801 15.514 8.087 12.949z" fill="#ffe08c"/><path d="m147.911 201.63-46.958-36.596c-1.811-1.411-4.349-1.411-6.159 0l-46.949 36.596c-3.287 2.565-8.086.221-8.086-3.948v18.035c0 4.168 4.799 6.513 8.086 3.948l50.028-38.997 50.038 38.997c3.286 2.565 8.086.221 8.086-3.948v-18.035c0 4.168-4.799 6.513-8.086 3.948z" fill="#f9d375"/><path d="m306.031 234.344-46.948-36.596c-1.811-1.411-4.349-1.411-6.16 0l-46.958 36.596c-3.286 2.565-8.086.221-8.086-3.948v18.035c0 4.168 4.799 6.513 8.086 3.948l50.038-38.996 50.028 38.996c3.296 2.565 8.096.221 8.096-3.948v-18.035c0 4.168-4.8 6.513-8.096 3.948z" fill="#ea4642"/><path d="m256.001 118.68c-87.873 0-151.853-19.294-190.051-35.479-41.768-17.699-62.484-35.37-63.346-36.114-3.141-2.712-3.489-7.458-.778-10.6 2.712-3.141 7.458-3.488 10.6-.778.189.162 20.254 17.174 60.125 33.964 36.808 15.5 98.514 33.977 183.451 33.977s146.643-18.477 183.451-33.977c39.87-16.79 59.936-33.801 60.134-33.971 3.146-2.701 7.889-2.342 10.593.798 2.703 3.143 2.357 7.878-.781 10.587-.862.744-21.578 18.415-63.347 36.114-38.198 16.185-102.178 35.479-190.051 35.479z" fill="#e4936b"/><path d="m464.16 435.298-46.948-36.596c-1.811-1.411-4.349-1.412-6.16 0l-46.958 36.596c-3.287 2.565-8.086-4.31-8.086-12.948v-95.517c53.124-10.02 91.73-26.562 116.238-39.858v135.375c0 8.918-4.799 15.513-8.086 12.948z" fill="#ffe08c"/><path d="m364.095 426.298 46.958-36.596c1.811-1.411 4.349-1.411 6.16 0l46.948 36.596c3.287 2.565 8.086.221 8.086-3.948v18.035c0 4.168-4.799 6.513-8.086 3.948l-50.028-38.997-50.038 38.997c-3.286 2.565-8.086.221-8.086-3.948v-18.035c0 4.169 4.799 6.513 8.086 3.948z" fill="#f9d375"/><path d="m205.965 468.012 46.958-36.596c1.811-1.411 4.349-1.411 6.16 0l46.948 36.596c3.296 2.565 8.096-2.698 8.096-12.948v-122.158c-18.055 1.863-37.433 2.926-58.124 2.926s-40.068-1.062-58.124-2.926v122.159c0 9.412 4.8 15.512 8.086 12.947z" fill="#36ce94"/><path d="m47.845 435.298 46.948-36.596c1.811-1.411 4.349-1.412 6.159 0l46.958 36.596c3.287 2.565 8.086-4.31 8.086-12.948v-95.517c-53.124-10.02-91.73-26.562-116.238-39.858v135.375c.002 8.918 4.801 15.513 8.087 12.948z" fill="#f7594e"/><path d="m147.911 426.298-46.958-36.596c-1.811-1.411-4.349-1.411-6.159 0l-46.948 36.596c-3.287 2.565-8.086.221-8.086-3.948v18.035c0 4.168 4.799 6.513 8.086 3.948l50.028-38.997 50.038 38.997c3.286 2.565 8.086.221 8.086-3.948v-18.035c-.001 4.169-4.8 6.513-8.087 3.948z" fill="#ea4642"/><path d="m306.031 459.012-46.948-36.596c-1.811-1.411-4.349-1.411-6.16 0l-46.958 36.596c-3.286 2.565-8.086.221-8.086-3.948v18.036c0 4.168 4.799 6.513 8.086 3.948l50.038-38.996 50.028 38.996c3.296 2.565 8.096.221 8.096-3.948v-18.035c0 4.168-4.8 6.512-8.096 3.947z" fill="#36bf84"/><path d="m256.001 343.348c-87.873 0-151.853-19.294-190.051-35.479-41.768-17.698-62.484-35.369-63.346-36.113-3.141-2.712-3.489-7.458-.778-10.6 2.712-3.141 7.458-3.488 10.6-.778.189.162 20.254 17.174 60.125 33.964 36.808 15.5 98.514 33.977 183.451 33.977s146.643-18.477 183.451-33.977c39.87-16.79 59.936-33.802 60.134-33.971 3.146-2.701 7.889-2.342 10.593.797 2.703 3.143 2.357 7.878-.781 10.587-.862.744-21.578 18.415-63.347 36.114-38.198 16.186-102.178 35.479-190.051 35.479z" fill="#e4936b"/></g></svg>